<svg version="1.1" xmlns="http://www.w3.org/2000/svg" viewBox="0 0 313.1032352597017 403.3106324052993" width="939.3097057791051" height="1209.931897215898">
  <!-- svg-source:excalidraw -->
  
  <defs>
  </defs>
  <g stroke-linecap="round" transform="translate(58.37238700979685 178.77835776699368) rotate(0 109.33334350585938 107.26613731915282)"><path d="M218.67 107.27 C218.67 110.57, 218.51 113.88, 218.2 117.16 C217.89 120.45, 217.42 123.73, 216.81 126.98 C216.19 130.22, 215.41 133.45, 214.49 136.62 C213.57 139.79, 212.5 142.94, 211.28 146.02 C210.07 149.09, 208.7 152.13, 207.2 155.08 C205.71 158.03, 204.06 160.93, 202.29 163.73 C200.52 166.54, 198.61 169.28, 196.58 171.91 C194.56 174.54, 192.4 177.09, 190.13 179.53 C187.87 181.97, 185.48 184.31, 182.99 186.54 C180.51 188.76, 177.9 190.88, 175.22 192.87 C172.54 194.85, 169.75 196.73, 166.89 198.47 C164.03 200.2, 161.08 201.82, 158.07 203.29 C155.06 204.76, 151.96 206.1, 148.83 207.29 C145.69 208.48, 142.49 209.53, 139.25 210.44 C136.02 211.34, 132.73 212.1, 129.42 212.71 C126.12 213.31, 122.77 213.77, 119.42 214.07 C116.07 214.38, 112.7 214.53, 109.33 214.53 C105.97 214.53, 102.59 214.38, 99.25 214.07 C95.9 213.77, 92.55 213.31, 89.24 212.71 C85.94 212.1, 82.65 211.34, 79.41 210.44 C76.18 209.53, 72.97 208.48, 69.84 207.29 C66.7 206.1, 63.61 204.76, 60.6 203.29 C57.59 201.82, 54.64 200.2, 51.78 198.47 C48.92 196.73, 46.13 194.85, 43.45 192.87 C40.76 190.88, 38.16 188.76, 35.68 186.54 C33.19 184.31, 30.8 181.97, 28.54 179.53 C26.27 177.09, 24.11 174.54, 22.08 171.91 C20.06 169.28, 18.15 166.54, 16.38 163.73 C14.61 160.93, 12.96 158.03, 11.46 155.08 C9.96 152.13, 8.6 149.09, 7.38 146.02 C6.17 142.94, 5.09 139.79, 4.17 136.62 C3.25 133.45, 2.48 130.22, 1.86 126.98 C1.24 123.73, 0.78 120.45, 0.47 117.16 C0.16 113.88, 0 110.57, 0 107.27 C0 103.97, 0.16 100.65, 0.47 97.37 C0.78 94.08, 1.24 90.8, 1.86 87.56 C2.48 84.31, 3.25 81.08, 4.17 77.91 C5.09 74.74, 6.17 71.59, 7.38 68.52 C8.6 65.44, 9.96 62.41, 11.46 59.45 C12.96 56.5, 14.61 53.6, 16.38 50.8 C18.15 47.99, 20.06 45.26, 22.08 42.62 C24.11 39.99, 26.27 37.44, 28.54 35 C30.8 32.56, 33.19 30.22, 35.68 28 C38.16 25.77, 40.76 23.65, 43.45 21.67 C46.13 19.68, 48.92 17.8, 51.78 16.07 C54.64 14.33, 57.59 12.72, 60.6 11.25 C63.61 9.77, 66.7 8.44, 69.84 7.24 C72.97 6.05, 76.18 5, 79.41 4.09 C82.65 3.19, 85.94 2.43, 89.24 1.83 C92.55 1.22, 95.9 0.76, 99.25 0.46 C102.59 0.15, 105.97 0, 109.33 0 C112.7 0, 116.07 0.15, 119.42 0.46 C122.77 0.76, 126.12 1.22, 129.42 1.83 C132.73 2.43, 136.02 3.19, 139.25 4.09 C142.49 5, 145.69 6.05, 148.83 7.24 C151.96 8.44, 155.06 9.77, 158.07 11.25 C161.08 12.72, 164.03 14.33, 166.89 16.07 C169.75 17.8, 172.54 19.68, 175.22 21.67 C177.9 23.65, 180.51 25.77, 182.99 28 C185.48 30.22, 187.87 32.56, 190.13 35 C192.4 37.44, 194.56 39.99, 196.58 42.62 C198.61 45.26, 200.52 47.99, 202.29 50.8 C204.06 53.6, 205.71 56.5, 207.2 59.45 C208.7 62.41, 210.07 65.44, 211.28 68.52 C212.5 71.59, 213.57 74.74, 214.49 77.91 C215.41 81.08, 216.19 84.31, 216.81 87.56 C217.42 90.8, 217.89 94.08, 218.2 97.37 C218.51 100.65, 218.59 105.62, 218.67 107.27 C218.74 108.92, 218.74 105.62, 218.67 107.27" stroke="#ffffff" stroke-width="2" fill="none"></path></g><g transform="translate(154.1203880163805 277.72625582786185) rotate(0 13.774993896484375 8.469626168224295)"></g><g stroke-linecap="round" transform="translate(10 10.000000000000028) rotate(0 93.66664123535156 96.88373303135204)"><path d="M187.33 96.88 C187.33 100.05, 187.18 103.23, 186.88 106.38 C186.58 109.53, 186.13 112.68, 185.53 115.78 C184.94 118.89, 184.19 121.98, 183.3 125.01 C182.41 128.04, 181.37 131.04, 180.2 133.96 C179.03 136.88, 177.72 139.76, 176.27 142.55 C174.83 145.35, 173.25 148.08, 171.55 150.71 C169.85 153.34, 168.01 155.9, 166.07 158.35 C164.13 160.79, 162.06 163.15, 159.9 165.39 C157.73 167.63, 155.45 169.77, 153.09 171.78 C150.72 173.78, 148.25 175.68, 145.71 177.44 C143.16 179.2, 140.52 180.84, 137.82 182.33 C135.12 183.82, 132.34 185.18, 129.51 186.39 C126.68 187.6, 123.79 188.68, 120.86 189.6 C117.93 190.51, 114.94 191.29, 111.94 191.91 C108.94 192.52, 105.89 192.99, 102.85 193.3 C99.8 193.61, 96.73 193.77, 93.67 193.77 C90.61 193.77, 87.53 193.61, 84.49 193.3 C81.44 192.99, 78.39 192.52, 75.39 191.91 C72.39 191.29, 69.41 190.51, 66.48 189.6 C63.55 188.68, 60.65 187.6, 57.82 186.39 C54.99 185.18, 52.21 183.82, 49.51 182.33 C46.81 180.84, 44.17 179.2, 41.63 177.44 C39.08 175.68, 36.61 173.78, 34.25 171.78 C31.88 169.77, 29.6 167.63, 27.43 165.39 C25.27 163.15, 23.2 160.79, 21.26 158.35 C19.32 155.9, 17.49 153.34, 15.79 150.71 C14.09 148.08, 12.5 145.35, 11.06 142.55 C9.62 139.76, 8.3 136.88, 7.13 133.96 C5.96 131.04, 4.92 128.04, 4.03 125.01 C3.14 121.98, 2.4 118.89, 1.8 115.78 C1.2 112.68, 0.75 109.53, 0.45 106.38 C0.15 103.23, 0 100.05, 0 96.88 C0 93.72, 0.15 90.54, 0.45 87.39 C0.75 84.24, 1.2 81.09, 1.8 77.98 C2.4 74.88, 3.14 71.79, 4.03 68.76 C4.92 65.73, 5.96 62.73, 7.13 59.81 C8.3 56.88, 9.62 54, 11.06 51.21 C12.5 48.42, 14.09 45.69, 15.79 43.06 C17.49 40.43, 19.32 37.87, 21.26 35.42 C23.2 32.97, 25.27 30.61, 27.43 28.38 C29.6 26.14, 31.88 24, 34.25 21.99 C36.61 19.98, 39.08 18.09, 41.63 16.33 C44.17 14.57, 46.81 12.93, 49.51 11.44 C52.21 9.95, 54.99 8.59, 57.82 7.37 C60.65 6.16, 63.55 5.09, 66.48 4.17 C69.41 3.25, 72.39 2.48, 75.39 1.86 C78.39 1.24, 81.44 0.78, 84.49 0.47 C87.53 0.16, 90.61 0, 93.67 0 C96.73 0, 99.8 0.16, 102.85 0.47 C105.89 0.78, 108.94 1.24, 111.94 1.86 C114.94 2.48, 117.93 3.25, 120.86 4.17 C123.79 5.09, 126.68 6.16, 129.51 7.37 C132.34 8.59, 135.12 9.95, 137.82 11.44 C140.52 12.93, 143.16 14.57, 145.71 16.33 C148.25 18.09, 150.72 19.98, 153.09 21.99 C155.45 24, 157.73 26.14, 159.9 28.38 C162.06 30.61, 164.13 32.97, 166.07 35.42 C168.01 37.87, 169.85 40.43, 171.55 43.06 C173.25 45.69, 174.83 48.42, 176.27 51.21 C177.72 54, 179.03 56.88, 180.2 59.81 C181.37 62.73, 182.41 65.73, 183.3 68.76 C184.19 71.79, 184.94 74.88, 185.53 77.98 C186.13 81.09, 186.58 84.24, 186.88 87.39 C187.18 90.54, 187.26 95.3, 187.33 96.88 C187.41 98.47, 187.41 95.3, 187.33 96.88" stroke="#ffffff" stroke-width="2.5" fill="none" stroke-dasharray="8 10"></path></g><g stroke-linecap="round" transform="translate(136.38593550188648 33.98394014224601) rotate(0 83.35864987890756 81.78255688458745)"><path d="M166.72 81.78 C166.72 84.63, 166.56 87.5, 166.26 90.33 C165.96 93.17, 165.5 96, 164.9 98.79 C164.29 101.57, 163.53 104.34, 162.64 107.05 C161.74 109.76, 160.69 112.44, 159.51 115.05 C158.33 117.65, 157 120.21, 155.55 122.67 C154.1 125.14, 152.5 127.55, 150.8 129.85 C149.09 132.16, 147.25 134.39, 145.31 136.51 C143.36 138.62, 141.29 140.65, 139.14 142.56 C136.98 144.47, 134.71 146.27, 132.36 147.95 C130.01 149.62, 127.55 151.18, 125.04 152.61 C122.52 154.03, 119.92 155.34, 117.26 156.49 C114.61 157.65, 111.88 158.68, 109.12 159.56 C106.36 160.44, 103.53 161.19, 100.69 161.78 C97.85 162.37, 94.96 162.82, 92.07 163.12 C89.18 163.41, 86.26 163.57, 83.36 163.57 C80.45 163.57, 77.53 163.41, 74.65 163.12 C71.76 162.82, 68.87 162.37, 66.03 161.78 C63.19 161.19, 60.36 160.44, 57.6 159.56 C54.84 158.68, 52.11 157.65, 49.45 156.49 C46.8 155.34, 44.19 154.03, 41.68 152.61 C39.16 151.18, 36.71 149.62, 34.36 147.95 C32.01 146.27, 29.74 144.47, 27.58 142.56 C25.42 140.65, 23.35 138.62, 21.41 136.51 C19.47 134.39, 17.63 132.16, 15.92 129.85 C14.21 127.55, 12.62 125.14, 11.17 122.67 C9.72 120.21, 8.39 117.65, 7.21 115.05 C6.03 112.44, 4.98 109.76, 4.08 107.05 C3.18 104.34, 2.43 101.57, 1.82 98.79 C1.22 96, 0.76 93.17, 0.46 90.33 C0.15 87.5, 0 84.63, 0 81.78 C0 78.93, 0.15 76.07, 0.46 73.23 C0.76 70.4, 1.22 67.57, 1.82 64.78 C2.43 61.99, 3.18 59.22, 4.08 56.51 C4.98 53.8, 6.03 51.12, 7.21 48.52 C8.39 45.92, 9.72 43.36, 11.17 40.89 C12.62 38.42, 14.21 36.02, 15.92 33.71 C17.63 31.41, 19.47 29.18, 21.41 27.06 C23.35 24.94, 25.42 22.91, 27.58 21.01 C29.74 19.1, 32.01 17.29, 34.36 15.62 C36.71 13.94, 39.16 12.38, 41.68 10.96 C44.19 9.53, 46.8 8.23, 49.45 7.07 C52.11 5.91, 54.84 4.88, 57.6 4 C60.36 3.12, 63.19 2.38, 66.03 1.79 C68.87 1.19, 71.76 0.75, 74.65 0.45 C77.53 0.15, 80.45 0, 83.36 0 C86.26 0, 89.18 0.15, 92.07 0.45 C94.96 0.75, 97.85 1.19, 100.69 1.79 C103.53 2.38, 106.36 3.12, 109.12 4 C111.88 4.88, 114.61 5.91, 117.26 7.07 C119.92 8.23, 122.52 9.53, 125.04 10.96 C127.55 12.38, 130.01 13.94, 132.36 15.62 C134.71 17.29, 136.98 19.1, 139.14 21.01 C141.29 22.91, 143.36 24.94, 145.31 27.06 C147.25 29.18, 149.09 31.41, 150.8 33.71 C152.5 36.02, 154.1 38.42, 155.55 40.89 C157 43.36, 158.33 45.92, 159.51 48.52 C160.69 51.12, 161.74 53.8, 162.64 56.51 C163.53 59.22, 164.29 61.99, 164.9 64.78 C165.5 67.57, 165.96 70.4, 166.26 73.23 C166.56 76.07, 166.64 80.36, 166.72 81.78 C166.79 83.21, 166.79 80.36, 166.72 81.78" stroke="#ffffff" stroke-width="2.5" fill="none" stroke-dasharray="8 10"></path></g><g stroke-linecap="round" transform="translate(171.3128112307503 36.74637377422147) rotate(0 7.000030517578125 7.000030517578125)"><path d="M14 7 C14 7.41, 13.96 7.82, 13.89 8.22 C13.82 8.61, 13.72 9.01, 13.58 9.39 C13.44 9.77, 13.26 10.15, 13.06 10.5 C12.86 10.85, 12.62 11.19, 12.36 11.5 C12.1 11.81, 11.81 12.1, 11.5 12.36 C11.19 12.62, 10.85 12.86, 10.5 13.06 C10.15 13.26, 9.77 13.44, 9.39 13.58 C9.01 13.72, 8.61 13.82, 8.22 13.89 C7.82 13.96, 7.41 14, 7 14 C6.59 14, 6.18 13.96, 5.78 13.89 C5.39 13.82, 4.99 13.72, 4.61 13.58 C4.23 13.44, 3.85 13.26, 3.5 13.06 C3.15 12.86, 2.81 12.62, 2.5 12.36 C2.19 12.1, 1.9 11.81, 1.64 11.5 C1.38 11.19, 1.14 10.85, 0.94 10.5 C0.74 10.15, 0.56 9.77, 0.42 9.39 C0.28 9.01, 0.18 8.61, 0.11 8.22 C0.04 7.82, 0 7.41, 0 7 C0 6.59, 0.04 6.18, 0.11 5.78 C0.18 5.39, 0.28 4.99, 0.42 4.61 C0.56 4.23, 0.74 3.85, 0.94 3.5 C1.14 3.15, 1.38 2.81, 1.64 2.5 C1.9 2.19, 2.19 1.9, 2.5 1.64 C2.81 1.38, 3.15 1.14, 3.5 0.94 C3.85 0.74, 4.23 0.56, 4.61 0.42 C4.99 0.28, 5.39 0.18, 5.78 0.11 C6.18 0.04, 6.59 0, 7 0 C7.41 0, 7.82 0.04, 8.22 0.11 C8.61 0.18, 9.01 0.28, 9.39 0.42 C9.77 0.56, 10.15 0.74, 10.5 0.94 C10.85 1.14, 11.19 1.38, 11.5 1.64 C11.81 1.9, 12.1 2.19, 12.36 2.5 C12.62 2.81, 12.86 3.15, 13.06 3.5 C13.26 3.85, 13.44 4.23, 13.58 4.61 C13.72 4.99, 13.82 5.39, 13.89 5.78 C13.96 6.18, 13.98 6.8, 14 7 C14.02 7.2, 14.02 6.8, 14 7" stroke="none" stroke-width="0" fill="#ffffff"></path><path d="M14 7 C14 7.41, 13.96 7.82, 13.89 8.22 C13.82 8.61, 13.72 9.01, 13.58 9.39 C13.44 9.77, 13.26 10.15, 13.06 10.5 C12.86 10.85, 12.62 11.19, 12.36 11.5 C12.1 11.81, 11.81 12.1, 11.5 12.36 C11.19 12.62, 10.85 12.86, 10.5 13.06 C10.15 13.26, 9.77 13.44, 9.39 13.58 C9.01 13.72, 8.61 13.82, 8.22 13.89 C7.82 13.96, 7.41 14, 7 14 C6.59 14, 6.18 13.96, 5.78 13.89 C5.39 13.82, 4.99 13.72, 4.61 13.58 C4.23 13.44, 3.85 13.26, 3.5 13.06 C3.15 12.86, 2.81 12.62, 2.5 12.36 C2.19 12.1, 1.9 11.81, 1.64 11.5 C1.38 11.19, 1.14 10.85, 0.94 10.5 C0.74 10.15, 0.56 9.77, 0.42 9.39 C0.28 9.01, 0.18 8.61, 0.11 8.22 C0.04 7.82, 0 7.41, 0 7 C0 6.59, 0.04 6.18, 0.11 5.78 C0.18 5.39, 0.28 4.99, 0.42 4.61 C0.56 4.23, 0.74 3.85, 0.94 3.5 C1.14 3.15, 1.38 2.81, 1.64 2.5 C1.9 2.19, 2.19 1.9, 2.5 1.64 C2.81 1.38, 3.15 1.14, 3.5 0.94 C3.85 0.74, 4.23 0.56, 4.61 0.42 C4.99 0.28, 5.39 0.18, 5.78 0.11 C6.18 0.04, 6.59 0, 7 0 C7.41 0, 7.82 0.04, 8.22 0.11 C8.61 0.18, 9.01 0.28, 9.39 0.42 C9.77 0.56, 10.15 0.74, 10.5 0.94 C10.85 1.14, 11.19 1.38, 11.5 1.64 C11.81 1.9, 12.1 2.19, 12.36 2.5 C12.62 2.81, 12.86 3.15, 13.06 3.5 C13.26 3.85, 13.44 4.23, 13.58 4.61 C13.72 4.99, 13.82 5.39, 13.89 5.78 C13.96 6.18, 13.98 6.8, 14 7 C14.02 7.2, 14.02 6.8, 14 7" stroke="#ffffff" stroke-width="2" fill="none"></path></g><g stroke-linecap="round"><g transform="translate(112.85999950474661 139.8323186903828) rotate(0 27.760567984001057 21.066673070595385)"><path d="M0 0 C9.25 7.02, 46.27 35.11, 55.52 42.13" stroke="#ffffff" stroke-width="2.5" fill="none" stroke-dasharray="8 10"></path></g></g><mask></mask><g stroke-linecap="round"><g transform="translate(170.76852550300305 181.5503166781141) rotate(0 23.75405056049658 -19.300166080403528)"><path d="M0 0 C7.92 -6.43, 39.59 -32.17, 47.51 -38.6" stroke="#ffffff" stroke-width="2.5" fill="none" stroke-dasharray="8 10"></path></g></g><mask></mask><g stroke-linecap="round" transform="translate(87.7855093051486 111.59961290062165) rotate(41.438669160974364 4.293532834772236 3.534784390635565)"><path d="M-0.53 -0.04 L8.51 -0.01 L8.15 7.01 L-0.05 6.53" stroke="none" stroke-width="0" fill="#ffffff"></path><path d="M0 0 C3.34 -0.13, 6.55 0.22, 8.59 0 M0 0 C2.48 0.03, 4.96 -0.08, 8.59 0 M8.59 0 C8.51 1.8, 8.39 3.57, 8.59 7.07 M8.59 0 C8.62 2.08, 8.61 4.27, 8.59 7.07 M8.59 7.07 C5.16 6.78, 1.5 6.8, 0 7.07 M8.59 7.07 C5.39 7.19, 2.52 7.08, 0 7.07 M0 7.07 C-0.14 4.56, 0.08 2.41, 0 0 M0 7.07 C-0.05 5.52, 0.07 4.02, 0 0" stroke="#000000" stroke-width="1" fill="none"></path></g><g stroke-linecap="round"><g transform="translate(99.78426012461489 115.3015433283673) rotate(130.27421958461406 -0.14284615767428477 5.2537286004320265)" fill-rule="evenodd"><path d="M-0.12 -0.01 L4.8 10.43 L-5.82 9.56 L0.49 0.72" stroke="none" stroke-width="0" fill="#262626" fill-rule="evenodd"></path><path d="M0 0 C1.66 3.63, 3.18 6.12, 5.46 10.51 M0 0 C2.41 3.9, 4.08 8.06, 5.46 10.51 M5.46 10.51 C0.93 10.25, -2.66 10.44, -5.75 10.38 M5.46 10.51 C1.12 10.73, -3.05 10.15, -5.75 10.38 M-5.75 10.38 C-5.12 7.72, -2.98 6.16, 0 0 M-5.75 10.38 C-4.09 7.98, -2.95 5.24, 0 0 M0 0 C0 0, 0 0, 0 0 M0 0 C0 0, 0 0, 0 0" stroke="#000000" stroke-width="1" fill="none"></path></g></g><mask></mask><g stroke-linecap="round" transform="translate(99.9594554179348 121.79682263427884) rotate(0 3.285716973994397 3.2857169739944254)"><path d="M3.43 -0.29 C4.11 -0.26, 5.38 0.5, 5.92 1.08 C6.46 1.67, 6.68 2.54, 6.69 3.23 C6.69 3.91, 6.35 4.73, 5.96 5.21 C5.58 5.7, 5.02 5.98, 4.38 6.13 C3.73 6.28, 2.72 6.32, 2.09 6.12 C1.46 5.92, 0.91 5.54, 0.6 4.94 C0.28 4.34, 0.1 3.2, 0.2 2.52 C0.3 1.84, 0.6 1.26, 1.18 0.87 C1.77 0.48, 3.33 0.36, 3.73 0.18 C4.14 0, 3.6 -0.24, 3.62 -0.2 M3.51 -0.33 C4.21 -0.36, 5.11 0.57, 5.63 1.11 C6.15 1.66, 6.6 2.31, 6.63 2.94 C6.65 3.58, 6.26 4.29, 5.79 4.95 C5.32 5.6, 4.44 6.56, 3.82 6.87 C3.2 7.18, 2.69 7.15, 2.06 6.8 C1.43 6.45, 0.33 5.46, 0.04 4.76 C-0.24 4.07, 0.17 3.24, 0.37 2.62 C0.56 2, 0.66 1.5, 1.22 1.05 C1.78 0.61, 3.43 0.04, 3.73 -0.04 C4.03 -0.13, 3.08 0.44, 3.02 0.56" stroke="none" stroke-width="0" fill="#ffffff"></path><path d="M3.22 0.33 C3.82 0.2, 4.56 0.11, 5.11 0.51 C5.66 0.91, 6.35 2.02, 6.51 2.72 C6.68 3.43, 6.48 4.15, 6.12 4.72 C5.75 5.3, 4.94 5.89, 4.31 6.18 C3.68 6.47, 2.91 6.62, 2.33 6.45 C1.75 6.29, 1.24 5.78, 0.85 5.2 C0.47 4.62, -0.06 3.64, 0.02 2.98 C0.1 2.31, 0.87 1.77, 1.34 1.22 C1.82 0.68, 2.54 -0.06, 2.85 -0.3 C3.16 -0.54, 3.2 -0.3, 3.2 -0.25 M3.28 0.51 C4.02 0.6, 5.55 0.73, 6.12 1.08 C6.69 1.43, 6.71 1.98, 6.7 2.61 C6.68 3.24, 6.55 4.2, 6.05 4.86 C5.55 5.53, 4.39 6.43, 3.67 6.59 C2.96 6.75, 2.25 6.17, 1.76 5.83 C1.26 5.48, 1 5.09, 0.71 4.5 C0.42 3.91, -0.17 2.94, 0.01 2.29 C0.2 1.65, 1.27 1, 1.81 0.62 C2.34 0.23, 2.93 0.08, 3.23 -0.01 C3.52 -0.1, 3.55 0.02, 3.55 0.08" stroke="#000000" stroke-width="1" fill="none"></path></g><g stroke-linecap="round"><g transform="translate(102.96565345612066 108.59378083289874) rotate(36.64936022633094 -5.6535316048328355 11.451517643309046)" fill-rule="evenodd"><path d="M0.66 0.64 C0.91 0.44, 0.47 0.08, 0.01 0.43 C-0.45 0.78, -1.22 2.14, -2.07 2.74 C-2.92 3.35, -4.56 3.41, -5.09 4.06 C-5.61 4.72, -5.41 5.93, -5.25 6.68 C-5.08 7.43, -4.06 7.97, -4.09 8.58 C-4.12 9.2, -5.44 9.15, -5.44 10.36 C-5.44 11.57, -4.4 14.55, -4.09 15.85 C-3.78 17.15, -3.5 17.25, -3.57 18.18 C-3.65 19.11, -4.93 20.73, -4.54 21.43 C-4.16 22.12, -1.97 21.89, -1.27 22.34 C-0.57 22.78, -0.54 24.16, -0.33 24.11 C-0.12 24.05, -0.07 22.02, -0.01 22 C0.05 21.97, 0.41 23.73, 0.01 23.96 C-0.39 24.2, -1.42 23.69, -2.39 23.4 C-3.36 23.11, -4.83 22.28, -5.8 22.22 C-6.77 22.17, -7.79 23.21, -8.23 23.05 C-8.67 22.9, -7.96 22.25, -8.43 21.3 C-8.89 20.36, -10.78 18.38, -11.02 17.37 C-11.25 16.36, -9.75 15.95, -9.84 15.24 C-9.93 14.53, -11.51 14.2, -11.56 13.09 C-11.62 11.97, -10.15 9.42, -10.16 8.55 C-10.16 7.67, -11.68 8.45, -11.58 7.85 C-11.47 7.26, -10.3 6.1, -9.5 4.96 C-8.71 3.82, -7.27 1.94, -6.79 1.03 C-6.31 0.11, -7.4 -0.59, -6.64 -0.56 C-5.89 -0.52, -3.14 1.08, -2.27 1.22 C-1.4 1.36, -2.02 0.69, -1.42 0.28 C-0.82 -0.12, 1.27 -0.96, 1.34 -1.23" stroke="none" stroke-width="0" fill="#ffffff" fill-rule="evenodd"></path><path d="M-0.2 0.45 C-0.42 0.6, -0.63 0.61, -0.9 0.77 C-1.17 0.93, -1.34 1.01, -1.81 1.43 C-2.28 1.84, -3.32 2.65, -3.71 3.27 C-4.1 3.88, -3.88 4.38, -4.16 5.11 C-4.44 5.84, -5.07 6.61, -5.37 7.65 C-5.68 8.68, -5.99 9.98, -5.99 11.32 C-5.98 12.66, -5.66 14.53, -5.36 15.68 C-5.06 16.84, -4.59 17.42, -4.2 18.27 C-3.81 19.11, -3.53 20.24, -3.03 20.75 C-2.53 21.27, -1.6 20.99, -1.2 21.35 C-0.81 21.7, -0.72 22.69, -0.64 22.89 C-0.57 23.09, -0.71 22.44, -0.74 22.54 C-0.78 22.65, -0.53 23.48, -0.84 23.52 C-1.14 23.56, -1.82 22.87, -2.57 22.81 C-3.32 22.75, -4.72 23.34, -5.33 23.16 C-5.95 22.97, -5.75 22.33, -6.26 21.68 C-6.78 21.02, -7.83 20, -8.43 19.24 C-9.03 18.47, -9.39 17.75, -9.86 17.08 C-10.32 16.4, -10.97 16.13, -11.23 15.18 C-11.49 14.22, -11.51 12.47, -11.41 11.37 C-11.31 10.27, -10.8 9.43, -10.62 8.56 C-10.43 7.69, -10.6 6.9, -10.3 6.14 C-10 5.38, -9.21 4.67, -8.82 3.99 C-8.43 3.32, -8.52 2.63, -7.95 2.08 C-7.39 1.52, -6.17 1.04, -5.43 0.68 C-4.69 0.33, -4.25 0.18, -3.51 -0.05 C-2.77 -0.29, -1.63 -0.8, -1 -0.73 C-0.37 -0.65, 0.09 0.31, 0.27 0.39 M0.7 0.21 C0.4 0.2, -0.75 -0.37, -1.18 -0.09 C-1.61 0.2, -1.46 1.27, -1.88 1.92 C-2.3 2.56, -3.26 3.25, -3.72 3.8 C-4.18 4.34, -4.48 4.4, -4.66 5.2 C-4.83 6, -4.56 7.68, -4.75 8.6 C-4.94 9.51, -5.62 9.49, -5.8 10.69 C-5.97 11.89, -5.97 14.63, -5.81 15.79 C-5.66 16.95, -5.41 16.8, -4.87 17.64 C-4.34 18.48, -3.03 20.17, -2.62 20.82 C-2.22 21.47, -2.91 21.22, -2.45 21.53 C-1.99 21.84, -0.13 22.34, 0.12 22.67 C0.38 23.01, -0.93 23.4, -0.9 23.55 C-0.88 23.71, 0.51 23.8, 0.26 23.6 C0.02 23.41, -1.48 22.58, -2.37 22.37 C-3.26 22.16, -4.35 22.39, -5.05 22.34 C-5.75 22.29, -5.92 22.6, -6.57 22.07 C-7.21 21.54, -8.3 20, -8.94 19.15 C-9.59 18.31, -10.05 17.78, -10.43 17 C-10.82 16.21, -10.99 15.23, -11.25 14.44 C-11.5 13.65, -12.13 13.07, -11.96 12.26 C-11.79 11.44, -10.51 10.63, -10.25 9.54 C-9.98 8.44, -10.49 6.68, -10.37 5.69 C-10.25 4.71, -10.02 4.2, -9.53 3.62 C-9.04 3.04, -8.19 2.69, -7.42 2.19 C-6.66 1.69, -5.67 1.02, -4.94 0.61 C-4.21 0.2, -3.79 -0.17, -3.03 -0.28 C-2.27 -0.39, -0.96 -0.02, -0.38 -0.03 C0.2 -0.04, 0.52 -0.49, 0.46 -0.36" stroke="#000000" stroke-width="1" fill="none"></path></g></g><mask></mask><g stroke-linecap="round" transform="translate(86.23526869994782 105.57956361881611) rotate(41.438669160974364 1.6793362483827536 8.185806403445952)"><path d="M0.49 0.72 L3.51 -0.37 L2.46 17.33 L0.4 16.76" stroke="none" stroke-width="0" fill="#262626"></path><path d="M0 0 C0.95 0.16, 1.71 -0.08, 3.36 0 M0 0 C1.03 -0.07, 2.05 0, 3.36 0 M3.36 0 C3.44 5.16, 4.22 10.8, 3.36 16.37 M3.36 0 C2.9 3, 2.93 7.05, 3.36 16.37 M3.36 16.37 C2.46 16.52, 1.26 16.41, 0 16.37 M3.36 16.37 C2.58 16.38, 1.92 16.29, 0 16.37 M0 16.37 C-0.14 10.68, 0.1 3.15, 0 0 M0 16.37 C-0.26 11.52, -0.02 6.4, 0 0" stroke="#000000" stroke-width="1" fill="none"></path></g><g stroke-linecap="round" transform="translate(94.45493092753748 87.59368544111766) rotate(41.438669160974364 4.641900015088652 13.140266157042703)"><path d="M0.15 -0.37 L8.39 0.96 L9.69 26.67 L0.73 26.21" stroke="none" stroke-width="0" fill="#ffffff"></path><path d="M0 0 C3.09 -0.24, 6.58 0.24, 9.28 0 M0 0 C2.4 0.03, 4.98 0.25, 9.28 0 M9.28 0 C10.24 9.66, 8.36 16.48, 9.28 26.28 M9.28 0 C8.73 7.97, 9.24 15.01, 9.28 26.28 M9.28 26.28 C7.2 26.45, 4.55 26.42, 0 26.28 M9.28 26.28 C7.1 26.1, 5.2 26.23, 0 26.28 M0 26.28 C0.13 18.2, -0.03 11.57, 0 0 M0 26.28 C0.05 18.02, 0.33 10.94, 0 0" stroke="#000000" stroke-width="1" fill="none"></path></g><g stroke-linecap="round" transform="translate(73.3812552016592 111.18563661138984) rotate(41.438669160974364 4.641900015088652 13.140266157042703)"><path d="M-0.9 0.96 L9.69 0.39 L10.01 26.21 L0.17 26.96" stroke="none" stroke-width="0" fill="#ffffff"></path><path d="M0 0 C3.74 0.3, 7.25 -0.02, 9.28 0 M0 0 C2 0.22, 4.04 0, 9.28 0 M9.28 0 C8.48 7.49, 9.33 15.85, 9.28 26.28 M9.28 0 C9.25 4.98, 8.84 11.11, 9.28 26.28 M9.28 26.28 C5.2 26.39, 1.62 25.9, 0 26.28 M9.28 26.28 C6.47 26.18, 3.2 26.2, 0 26.28 M0 26.28 C-0.07 16.35, -0.03 6, 0 0 M0 26.28 C0.25 18.97, 0.08 10.76, 0 0" stroke="#000000" stroke-width="1" fill="none"></path></g><g stroke-linecap="round"><g transform="translate(95.74274273102503 98.50906484035528) rotate(0 3.1047131843368447 2.5520861595439044)"><path d="M0.22 -0.12 C1.27 0.68, 5.2 3.93, 6.18 4.8 M-0.1 -0.48 C0.92 0.34, 4.9 4.1, 5.88 5.09" stroke="#000000" stroke-width="1" fill="none"></path></g></g><mask></mask><g stroke-linecap="round"><g transform="translate(74.1459145571489 121.52679503543527) rotate(0 3.5868334072085304 2.623879898852067)"><path d="M-0.03 -0.31 C1.11 0.58, 5.84 4.25, 7.05 5.23 M-0.48 0.3 C0.59 1.26, 5.46 4.88, 6.7 5.67" stroke="#000000" stroke-width="1" fill="none"></path></g></g><mask></mask><g stroke-linecap="round"><g transform="translate(100.68835383778185 92.2578698243891) rotate(0 3.4911837167702515 2.9803224181939925)"><path d="M-0.13 -0.02 C1.04 1.08, 5.8 5.29, 7 6.29 M0.45 -0.34 C1.58 0.7, 5.66 4.72, 6.74 5.83" stroke="#000000" stroke-width="1" fill="none"></path></g></g><mask></mask><g stroke-linecap="round"><g transform="translate(91.20608745530797 102.16221043701398) rotate(0 3.727339043016457 3.244257195538097)"><path d="M0.02 0.33 C1.3 1.41, 6.31 5.41, 7.56 6.49 M-0.4 0.19 C0.86 1.33, 6.05 5.92, 7.34 6.94" stroke="#000000" stroke-width="1" fill="none"></path></g></g><mask></mask><g stroke-linecap="round"><g transform="translate(79.0902739365722 115.62729803667554) rotate(0 3.6827029819928043 2.9749752306929906)"><path d="M0.11 0 C1.35 1, 6.17 5.35, 7.43 6.29 M-0.26 -0.3 C0.93 0.75, 5.87 4.82, 7.19 5.84" stroke="#000000" stroke-width="1" fill="none"></path></g></g><mask></mask><g stroke-linecap="round"><g transform="translate(70.22017940455021 126.26328375010053) rotate(0 3.4537234200343505 2.918075158836615)"><path d="M0.07 0.34 C1.26 1.26, 6.16 4.6, 7.25 5.51 M-0.32 0.21 C0.84 1.16, 5.88 4.8, 7.15 5.79" stroke="#000000" stroke-width="1" fill="none"></path></g></g><mask></mask><g transform="translate(76.94045727109551 48.43489020440202) rotate(0 19.415992736816406 10)"></g><g stroke-linecap="round" transform="translate(235.50022155306033 121.1581861532776) rotate(318.56133083902563 4.293532834772236 3.534784390635565)"><path d="M-0.67 -0.09 L9.05 -0.42 L8.36 6.86 L0.17 6.94" stroke="none" stroke-width="0" fill="#ffffff"></path><path d="M0 0 C3.11 0.15, 6.35 -0.14, 8.59 0 M0 0 C3.11 -0.05, 6.45 -0.12, 8.59 0 M8.59 0 C8.38 2.09, 8.68 4.29, 8.59 7.07 M8.59 0 C8.69 1.79, 8.65 3.66, 8.59 7.07 M8.59 7.07 C6.44 7.08, 4.55 7.05, 0 7.07 M8.59 7.07 C5.29 6.99, 1.8 7.02, 0 7.07 M0 7.07 C0.06 5.83, 0.23 4.22, 0 0 M0 7.07 C0.02 5.24, 0.01 3.28, 0 0" stroke="#000000" stroke-width="1" fill="none"></path></g><g stroke-linecap="round"><g transform="translate(232.0885364031385 124.86011658102325) rotate(229.72578041538594 0.14284615767428477 5.2537286004320265)" fill-rule="evenodd"><path d="M0.7 -0.63 L-5.81 10.2 L6 10.19 L-0.3 0.88" stroke="none" stroke-width="0" fill="#262626" fill-rule="evenodd"></path><path d="M0 0 C-1.33 3.38, -3.3 7.84, -5.46 10.51 M0 0 C-1.8 2.94, -3.38 6.13, -5.46 10.51 M-5.46 10.51 C-2.88 10.65, -1.07 10.56, 5.75 10.38 M-5.46 10.51 C-2.9 10.44, -0.84 10.73, 5.75 10.38 M5.75 10.38 C3.27 6.79, 2.44 3.89, 0 0 M5.75 10.38 C3.95 7.09, 1.92 3.93, 0 0 M0 0 C0 0, 0 0, 0 0 M0 0 C0 0, 0 0, 0 0" stroke="#000000" stroke-width="1" fill="none"></path></g></g><mask></mask><g stroke-linecap="round" transform="translate(225.34190716182968 131.35539588693473) rotate(0 3.285716973994397 3.2857169739944254)"><path d="M3.44 -0.08 C4.09 -0.14, 4.98 0.17, 5.49 0.64 C5.99 1.11, 6.36 2.06, 6.47 2.74 C6.58 3.42, 6.53 4.1, 6.16 4.69 C5.79 5.28, 4.9 5.99, 4.26 6.28 C3.62 6.57, 2.87 6.63, 2.3 6.41 C1.72 6.2, 1.17 5.57, 0.8 4.99 C0.43 4.4, -0.03 3.62, 0.05 2.89 C0.13 2.16, 0.76 1.03, 1.29 0.6 C1.81 0.17, 2.84 0.43, 3.19 0.31 C3.55 0.18, 3.45 -0.19, 3.4 -0.18 M3.31 -0.42 C4.01 -0.24, 5.67 1.07, 6.15 1.6 C6.64 2.13, 6.26 2.18, 6.22 2.77 C6.17 3.36, 6.24 4.58, 5.89 5.14 C5.54 5.7, 4.82 6.01, 4.11 6.14 C3.39 6.27, 2.23 6.11, 1.6 5.91 C0.98 5.71, 0.54 5.62, 0.35 4.95 C0.17 4.27, 0.24 2.62, 0.5 1.85 C0.76 1.08, 1.4 0.71, 1.9 0.34 C2.4 -0.04, 3.23 -0.39, 3.52 -0.41 C3.81 -0.42, 3.59 0.12, 3.64 0.25" stroke="none" stroke-width="0" fill="#ffffff"></path><path d="M3.7 -0.06 C4.31 0.06, 5.06 0.63, 5.49 1.12 C5.92 1.62, 6.27 2.21, 6.29 2.91 C6.3 3.62, 5.94 4.72, 5.57 5.34 C5.2 5.95, 4.74 6.46, 4.07 6.61 C3.41 6.76, 2.25 6.53, 1.56 6.22 C0.87 5.91, 0.19 5.38, -0.06 4.74 C-0.31 4.1, -0.22 3.14, 0.04 2.39 C0.3 1.63, 0.83 0.57, 1.52 0.2 C2.21 -0.17, 3.82 0.2, 4.17 0.19 C4.52 0.17, 3.73 0.1, 3.61 0.13 M4.14 -0.25 C4.73 -0.22, 5.43 0.41, 5.76 0.96 C6.08 1.51, 6.07 2.3, 6.08 3.05 C6.09 3.8, 6.12 4.81, 5.82 5.46 C5.52 6.12, 4.99 6.88, 4.3 6.98 C3.61 7.07, 2.33 6.47, 1.69 6.03 C1.05 5.58, 0.69 4.89, 0.46 4.33 C0.23 3.76, 0.1 3.23, 0.3 2.64 C0.51 2.05, 1.2 1.23, 1.7 0.79 C2.2 0.34, 2.9 0.14, 3.3 -0.02 C3.71 -0.19, 4.1 -0.25, 4.14 -0.21" stroke="#000000" stroke-width="1" fill="none"></path></g><g stroke-linecap="round"><g transform="translate(228.90714307163262 118.15235408555463) rotate(323.35063977366906 5.6535316048328355 11.451517643309046)" fill-rule="evenodd"><path d="M-0.14 -0.09 C0.27 -0.21, 1.75 0.25, 2.09 0.29 C2.43 0.33, 1.67 -0.31, 1.87 0.16 C2.08 0.63, 2.9 2.05, 3.33 3.13 C3.75 4.21, 4.16 5.79, 4.43 6.64 C4.69 7.5, 4.69 7.28, 4.92 8.26 C5.16 9.24, 5.99 11.35, 5.84 12.51 C5.69 13.67, 4.01 14.14, 4.02 15.22 C4.02 16.3, 6.21 18.39, 5.86 19 C5.52 19.61, 2.58 18.16, 1.94 18.88 C1.3 19.61, 2.24 22.79, 2.03 23.36 C1.83 23.92, 1.29 22.56, 0.73 22.27 C0.17 21.97, -1.5 21.18, -1.34 21.59 C-1.19 22.01, 1.2 24.73, 1.67 24.75 C2.15 24.77, 0.93 22.19, 1.5 21.72 C2.07 21.26, 4.11 22.18, 5.09 21.96 C6.07 21.73, 6.85 20.88, 7.38 20.37 C7.9 19.86, 7.74 19.12, 8.24 18.89 C8.75 18.66, 9.8 19.85, 10.4 19 C11 18.15, 11.51 15.07, 11.84 13.8 C12.17 12.53, 12.62 12.46, 12.35 11.36 C12.08 10.27, 10.64 8.02, 10.2 7.24 C9.77 6.47, 9.85 7.27, 9.73 6.71 C9.61 6.16, 10.02 4.81, 9.48 3.9 C8.95 2.99, 7 1.68, 6.52 1.25 C6.05 0.82, 7.16 1.72, 6.62 1.32 C6.08 0.91, 4.12 -0.78, 3.29 -1.19 C2.46 -1.59, 2.24 -1.24, 1.66 -1.1 C1.09 -0.95, -0.01 -0.53, -0.18 -0.31" stroke="none" stroke-width="0" fill="#ffffff" fill-rule="evenodd"></path><path d="M0.52 0.02 C0.67 0.01, 0.39 0.18, 0.66 0.38 C0.94 0.57, 1.72 0.79, 2.19 1.18 C2.66 1.58, 3.17 2.14, 3.47 2.75 C3.77 3.36, 3.67 3.91, 3.98 4.85 C4.28 5.79, 4.96 7.34, 5.29 8.39 C5.62 9.44, 5.92 10.08, 5.95 11.13 C5.98 12.19, 5.68 13.57, 5.49 14.72 C5.3 15.87, 5.18 17.13, 4.83 18.03 C4.49 18.93, 4.01 19.38, 3.42 20.11 C2.83 20.83, 1.8 21.97, 1.29 22.36 C0.78 22.74, 0.54 22.39, 0.37 22.43 C0.19 22.46, 0.23 22.34, 0.22 22.55 C0.21 22.77, -0.18 23.6, 0.31 23.71 C0.81 23.81, 2.36 23.43, 3.19 23.2 C4.03 22.96, 4.74 22.59, 5.34 22.29 C5.94 21.99, 6.33 21.85, 6.78 21.39 C7.23 20.93, 7.51 20.16, 8.04 19.52 C8.57 18.89, 9.42 18.24, 9.95 17.58 C10.48 16.91, 10.98 16.53, 11.2 15.55 C11.43 14.57, 11.28 12.85, 11.3 11.68 C11.33 10.52, 11.51 9.39, 11.34 8.56 C11.18 7.73, 10.65 7.43, 10.31 6.72 C9.98 6.01, 9.9 5.07, 9.34 4.29 C8.78 3.51, 7.57 2.69, 6.97 2.03 C6.37 1.38, 6.42 0.71, 5.75 0.34 C5.08 -0.02, 3.73 -0.06, 2.95 -0.18 C2.18 -0.3, 1.62 -0.5, 1.1 -0.39 C0.58 -0.28, 0.04 0.33, -0.16 0.48 M0.12 -0.44 C0.46 -0.41, 1.36 0.66, 1.63 0.99 C1.9 1.32, 1.43 1.21, 1.76 1.55 C2.08 1.88, 3.09 2.47, 3.58 3.01 C4.07 3.55, 4.32 3.95, 4.71 4.79 C5.09 5.63, 5.65 6.84, 5.92 8.05 C6.19 9.27, 6.47 10.75, 6.33 12.07 C6.19 13.4, 5.41 14.84, 5.07 15.99 C4.74 17.14, 4.5 18.31, 4.31 18.95 C4.11 19.59, 4.43 19.43, 3.91 19.84 C3.4 20.25, 1.89 20.76, 1.21 21.4 C0.53 22.03, -0.01 23.28, -0.16 23.64 C-0.31 24, 0.3 23.53, 0.33 23.57 C0.35 23.61, -0.3 23.99, -0.03 23.89 C0.24 23.78, 1.22 23.16, 1.95 22.96 C2.68 22.76, 3.63 22.92, 4.34 22.7 C5.05 22.48, 5.45 22.15, 6.2 21.63 C6.95 21.11, 8.32 20.23, 8.84 19.59 C9.36 18.94, 9.12 18.52, 9.31 17.75 C9.5 16.99, 9.73 16.12, 9.98 15 C10.23 13.89, 10.54 11.98, 10.81 11.07 C11.08 10.16, 11.68 10.28, 11.61 9.53 C11.54 8.78, 10.89 7.48, 10.37 6.57 C9.85 5.66, 8.97 4.81, 8.48 4.07 C7.99 3.33, 8.05 2.79, 7.44 2.13 C6.83 1.47, 5.46 0.53, 4.81 0.1 C4.16 -0.33, 4.3 -0.53, 3.52 -0.47 C2.74 -0.4, 0.76 0.44, 0.14 0.49 C-0.48 0.53, -0.28 -0.17, -0.2 -0.22" stroke="#000000" stroke-width="1" fill="none"></path></g></g><mask></mask><g stroke-linecap="round" transform="translate(242.27885533103984 115.13813687147206) rotate(318.56133083902563 1.6793362483827536 8.185806403445952)"><path d="M-0.3 0.88 L3.17 0.95 L3.12 17.02 L-0.09 16.32" stroke="none" stroke-width="0" fill="#262626"></path><path d="M0 0 C1.27 -0.03, 2.51 0.01, 3.36 0 M0 0 C0.72 0.05, 1.47 -0.02, 3.36 0 M3.36 0 C2.95 5.62, 3.11 9.74, 3.36 16.37 M3.36 0 C3.39 6.01, 3.35 13.2, 3.36 16.37 M3.36 16.37 C1.93 16.38, 0.63 16.22, 0 16.37 M3.36 16.37 C2.54 16.45, 1.59 16.35, 0 16.37 M0 16.37 C0.73 10.85, 0.54 4.16, 0 0 M0 16.37 C-0.2 11.54, 0.05 6.89, 0 0" stroke="#000000" stroke-width="1" fill="none"></path></g><g stroke-linecap="round" transform="translate(228.1340655700384 97.15225869377355) rotate(318.56133083902563 4.641900015088652 13.140266157042703)"><path d="M-0.19 0.95 L9.05 0.65 L9.2 26.23 L0.55 26.12" stroke="none" stroke-width="0" fill="#ffffff"></path><path d="M0 0 C1.53 0.01, 3.42 -0.42, 9.28 0 M0 0 C2.1 -0.11, 4.1 -0.22, 9.28 0 M9.28 0 C9.01 9.28, 10.14 20.58, 9.28 26.28 M9.28 0 C9.24 5.94, 9.77 10.95, 9.28 26.28 M9.28 26.28 C5.7 25.82, 2.27 26.26, 0 26.28 M9.28 26.28 C6.3 26.26, 3.43 26.26, 0 26.28 M0 26.28 C0.52 16.75, -0.24 9.91, 0 0 M0 26.28 C0.17 19.95, -0.1 14.25, 0 0" stroke="#000000" stroke-width="1" fill="none"></path></g><g stroke-linecap="round" transform="translate(249.20774129591666 120.74420986404584) rotate(318.56133083902563 4.641900015088652 13.140266157042703)"><path d="M-0.24 0.65 L9.2 -0.05 L9.84 26.12 L-0.29 25.38" stroke="none" stroke-width="0" fill="#ffffff"></path><path d="M0 0 C2.12 -0.44, 4.64 -0.02, 9.28 0 M0 0 C3.28 -0.18, 6.67 -0.08, 9.28 0 M9.28 0 C10.17 9.64, 8.33 18.46, 9.28 26.28 M9.28 0 C9.76 5.39, 9.61 10.44, 9.28 26.28 M9.28 26.28 C6.35 26.22, 3.86 26.6, 0 26.28 M9.28 26.28 C5.75 26.21, 2.05 26.47, 0 26.28 M0 26.28 C-0.21 18.53, -0.71 9.03, 0 0 M0 26.28 C-0.18 19.65, -0.13 12.62, 0 0" stroke="#000000" stroke-width="1" fill="none"></path></g><g stroke-linecap="round"><g transform="translate(236.13005379672836 108.06763809301128) rotate(0 -3.1047131843368447 2.5520861595439044)"><path d="M-0.34 -0.29 C-1.37 0.64, -5.27 4.4, -6.23 5.28 M0.14 0.33 C-0.95 1.18, -5.45 3.92, -6.52 4.74" stroke="#000000" stroke-width="1" fill="none"></path></g></g><mask></mask><g stroke-linecap="round"><g transform="translate(257.7268819706044 131.08536828809122) rotate(0 -3.5868334072085304 2.623879898852067)"><path d="M-0.02 0.17 C-1.14 1.07, -5.89 4.31, -7.07 5.11 M-0.46 -0.05 C-1.59 0.93, -6.15 4.61, -7.29 5.49" stroke="#000000" stroke-width="1" fill="none"></path></g></g><mask></mask><g stroke-linecap="round"><g transform="translate(231.18444268997132 101.81644307704505) rotate(0 -3.4911837167702515 2.9803224181939925)"><path d="M0.11 -0.14 C-1.04 0.77, -5.79 4.67, -6.92 5.66 M-0.27 -0.52 C-1.46 0.42, -6.08 4.86, -7.17 5.96" stroke="#000000" stroke-width="1" fill="none"></path></g></g><mask></mask><g stroke-linecap="round"><g transform="translate(240.6667090724452 111.72078368966993) rotate(0 -3.727339043016457 3.244257195538097)"><path d="M0.06 -0.3 C-1.15 0.78, -5.93 5.22, -7.16 6.34 M-0.33 0.32 C-1.57 1.46, -6.1 5.64, -7.28 6.71" stroke="#000000" stroke-width="1" fill="none"></path></g></g><mask></mask><g stroke-linecap="round"><g transform="translate(252.78252259118108 125.18587128933154) rotate(0 -3.6827029819928043 2.9749752306929906)"><path d="M0.3 -0.15 C-0.91 0.88, -5.86 4.8, -7.18 5.87 M0.02 -0.53 C-1.22 0.57, -6.21 5.23, -7.37 6.28" stroke="#000000" stroke-width="1" fill="none"></path></g></g><mask></mask><g stroke-linecap="round"><g transform="translate(261.6526171232031 135.82185700275647) rotate(0 -3.4537234200343505 2.918075158836615)"><path d="M0.18 -0.08 C-1.07 0.97, -6.04 5.23, -7.19 6.16 M-0.15 -0.43 C-1.32 0.55, -5.42 4.68, -6.54 5.7" stroke="#000000" stroke-width="1" fill="none"></path></g></g><mask></mask><g transform="translate(226.3996493904491 76.01535686154776) rotate(0 21.599998474121094 9.999999999999986)"></g><g stroke-linecap="round" transform="translate(158.96538283685686 173.65714824507245) rotate(0 7.000030517578125 7.000030517578125)"><path d="M14 7 C14 7.41, 13.96 7.82, 13.89 8.22 C13.82 8.61, 13.72 9.01, 13.58 9.39 C13.44 9.77, 13.26 10.15, 13.06 10.5 C12.86 10.85, 12.62 11.19, 12.36 11.5 C12.1 11.81, 11.81 12.1, 11.5 12.36 C11.19 12.62, 10.85 12.86, 10.5 13.06 C10.15 13.26, 9.77 13.44, 9.39 13.58 C9.01 13.72, 8.61 13.82, 8.22 13.89 C7.82 13.96, 7.41 14, 7 14 C6.59 14, 6.18 13.96, 5.78 13.89 C5.39 13.82, 4.99 13.72, 4.61 13.58 C4.23 13.44, 3.85 13.26, 3.5 13.06 C3.15 12.86, 2.81 12.62, 2.5 12.36 C2.19 12.1, 1.9 11.81, 1.64 11.5 C1.38 11.19, 1.14 10.85, 0.94 10.5 C0.74 10.15, 0.56 9.77, 0.42 9.39 C0.28 9.01, 0.18 8.61, 0.11 8.22 C0.04 7.82, 0 7.41, 0 7 C0 6.59, 0.04 6.18, 0.11 5.78 C0.18 5.39, 0.28 4.99, 0.42 4.61 C0.56 4.23, 0.74 3.85, 0.94 3.5 C1.14 3.15, 1.38 2.81, 1.64 2.5 C1.9 2.19, 2.19 1.9, 2.5 1.64 C2.81 1.38, 3.15 1.14, 3.5 0.94 C3.85 0.74, 4.23 0.56, 4.61 0.42 C4.99 0.28, 5.39 0.18, 5.78 0.11 C6.18 0.04, 6.59 0, 7 0 C7.41 0, 7.82 0.04, 8.22 0.11 C8.61 0.18, 9.01 0.28, 9.39 0.42 C9.77 0.56, 10.15 0.74, 10.5 0.94 C10.85 1.14, 11.19 1.38, 11.5 1.64 C11.81 1.9, 12.1 2.19, 12.36 2.5 C12.62 2.81, 12.86 3.15, 13.06 3.5 C13.26 3.85, 13.44 4.23, 13.58 4.61 C13.72 4.99, 13.82 5.39, 13.89 5.78 C13.96 6.18, 13.98 6.8, 14 7 C14.02 7.2, 14.02 6.8, 14 7" stroke="none" stroke-width="0" fill="#e03131"></path><path d="M14 7 C14 7.41, 13.96 7.82, 13.89 8.22 C13.82 8.61, 13.72 9.01, 13.58 9.39 C13.44 9.77, 13.26 10.15, 13.06 10.5 C12.86 10.85, 12.62 11.19, 12.36 11.5 C12.1 11.81, 11.81 12.1, 11.5 12.36 C11.19 12.62, 10.85 12.86, 10.5 13.06 C10.15 13.26, 9.77 13.44, 9.39 13.58 C9.01 13.72, 8.61 13.82, 8.22 13.89 C7.82 13.96, 7.41 14, 7 14 C6.59 14, 6.18 13.96, 5.78 13.89 C5.39 13.82, 4.99 13.72, 4.61 13.58 C4.23 13.44, 3.85 13.26, 3.5 13.06 C3.15 12.86, 2.81 12.62, 2.5 12.36 C2.19 12.1, 1.9 11.81, 1.64 11.5 C1.38 11.19, 1.14 10.85, 0.94 10.5 C0.74 10.15, 0.56 9.77, 0.42 9.39 C0.28 9.01, 0.18 8.61, 0.11 8.22 C0.04 7.82, 0 7.41, 0 7 C0 6.59, 0.04 6.18, 0.11 5.78 C0.18 5.39, 0.28 4.99, 0.42 4.61 C0.56 4.23, 0.74 3.85, 0.94 3.5 C1.14 3.15, 1.38 2.81, 1.64 2.5 C1.9 2.19, 2.19 1.9, 2.5 1.64 C2.81 1.38, 3.15 1.14, 3.5 0.94 C3.85 0.74, 4.23 0.56, 4.61 0.42 C4.99 0.28, 5.39 0.18, 5.78 0.11 C6.18 0.04, 6.59 0, 7 0 C7.41 0, 7.82 0.04, 8.22 0.11 C8.61 0.18, 9.01 0.28, 9.39 0.42 C9.77 0.56, 10.15 0.74, 10.5 0.94 C10.85 1.14, 11.19 1.38, 11.5 1.64 C11.81 1.9, 12.1 2.19, 12.36 2.5 C12.62 2.81, 12.86 3.15, 13.06 3.5 C13.26 3.85, 13.44 4.23, 13.58 4.61 C13.72 4.99, 13.82 5.39, 13.89 5.78 C13.96 6.18, 13.98 6.8, 14 7 C14.02 7.2, 14.02 6.8, 14 7" stroke="#e03131" stroke-width="2" fill="none"></path></g></svg>